<?xml version="1.0" standalone="no"?>
<!DOCTYPE svg PUBLIC "-//W3C//DTD SVG 20010904//EN"
 "http://www.w3.org/TR/2001/REC-SVG-20010904/DTD/svg10.dtd">
<svg version="1.0" xmlns="http://www.w3.org/2000/svg"
 width="60.000000pt" height="60.000000pt" viewBox="0 0 60.000000 60.000000"
 preserveAspectRatio="xMidYMid meet">

<g transform="translate(0.000000,60.000000) scale(0.100000,-0.100000)"
fill="#000000" stroke="none">
<path d="M401 582 c-1 -7 -5 -10 -11 -7 -5 3 -10 1 -10 -4 0 -6 -3 -10 -7 -10
-27 4 -35 -1 -23 -15 8 -10 8 -21 2 -32 -6 -11 -11 -13 -16 -5 -4 6 -2 11 4
11 6 0 8 4 5 10 -4 6 -11 5 -20 -3 -9 -8 -10 -16 -3 -25 8 -10 6 -11 -8 -6
-18 7 -18 6 -3 -12 20 -24 14 -44 -11 -37 -27 7 -25 -5 3 -18 20 -9 20 -9 -5
-4 -22 4 -26 2 -22 -10 11 -26 -11 -16 -51 25 -54 55 -133 91 -118 54 3 -8 12
-13 19 -10 8 3 14 1 14 -4 0 -6 8 -10 18 -11 10 0 12 -3 5 -6 -22 -8 12 -32
38 -27 20 4 21 3 5 -4 -14 -6 -16 -11 -8 -16 7 -4 17 -4 24 0 7 5 9 2 5 -8 -3
-10 1 -18 11 -22 9 -3 28 -10 41 -16 18 -8 22 -7 18 3 -3 8 -1 20 4 28 7 12 9
12 9 -1 1 -13 2 -13 13 1 7 8 21 21 32 28 15 9 16 11 3 7 -10 -3 -18 -1 -18 4
0 6 6 10 14 10 8 0 18 4 21 10 3 6 -1 7 -9 4 -9 -3 -16 -1 -16 5 0 6 9 11 19
11 10 0 21 7 25 15 3 9 0 15 -10 15 -8 0 -13 4 -9 10 3 5 11 8 18 6 7 -1 9 -1
5 1 -13 8 -9 23 6 23 8 0 17 7 20 16 3 8 2 13 -3 9 -5 -3 -12 1 -14 7 -4 10
-6 10 -6 0z"/>
<path d="M295 470 c3 -5 11 -10 16 -10 6 0 7 5 4 10 -3 6 -11 10 -16 10 -6 0
-7 -4 -4 -10z"/>
<path d="M128 289 c-21 -12 -25 -93 -5 -106 6 -4 26 -38 44 -75 38 -80 69
-103 134 -103 65 0 95 25 147 121 33 61 42 88 40 119 -4 55 -30 59 -74 11 -32
-35 -36 -36 -101 -36 -73 0 -126 17 -118 38 2 6 -2 12 -11 12 -8 0 -17 7 -20
15 -7 17 -13 18 -36 4z"/>
</g>
</svg>
